<?xml version="1.0" encoding="utf-8"?>
<!-- Generator: Adobe Illustrator 15.1.0, SVG Export Plug-In  -->
<!DOCTYPE svg PUBLIC "-//W3C//DTD SVG 1.1//EN" "http://www.w3.org/Graphics/SVG/1.1/DTD/svg11.dtd" [
	<!ENTITY ns_flows "http://ns.adobe.com/Flows/1.0/">
]>
<svg version="1.1"
	 xmlns="http://www.w3.org/2000/svg" xmlns:xlink="http://www.w3.org/1999/xlink" xmlns:a="http://ns.adobe.com/AdobeSVGViewerExtensions/3.0/"
	 x="0px" y="0px" width="47px" height="10px" viewBox="0 0 47 10" enable-background="new 0 0 47 10" xml:space="preserve">
<defs>
</defs>
<path fill="#FFFFFF" d="M17.011,10.039V0.017h3.76c0.767,0,1.38,0.102,1.842,0.304c0.463,0.202,0.825,0.515,1.088,0.937
	c0.262,0.422,0.393,0.862,0.393,1.323c0,0.428-0.116,0.832-0.349,1.21c-0.233,0.378-0.583,0.684-1.054,0.916
	c0.606,0.178,1.072,0.481,1.398,0.91c0.326,0.428,0.489,0.934,0.489,1.516c0,0.471-0.1,0.906-0.297,1.311
	c-0.198,0.404-0.443,0.715-0.735,0.934s-0.657,0.385-1.097,0.496c-0.44,0.11-0.979,0.166-1.617,0.166H17.011L17.011,10.039z
	 M18.337,4.228h2.167c0.588,0,1.009-0.039,1.265-0.116c0.337-0.1,0.591-0.267,0.763-0.499c0.171-0.232,0.256-0.524,0.256-0.875
	c0-0.333-0.08-0.625-0.239-0.878s-0.387-0.426-0.684-0.52C21.566,1.246,21.06,1.2,20.34,1.2h-2.003V4.228z M18.337,8.855h2.495
	c0.428,0,0.729-0.016,0.901-0.048c0.306-0.056,0.562-0.146,0.767-0.272s0.374-0.313,0.506-0.558s0.198-0.524,0.198-0.845
	c0-0.373-0.097-0.698-0.287-0.975c-0.191-0.275-0.457-0.468-0.796-0.58c-0.339-0.112-0.828-0.167-1.467-0.167h-2.316L18.337,8.855
	L18.337,8.855z"/>
<path fill="#FFFFFF" d="M30.982,9.143c-0.456,0.388-0.895,0.661-1.315,0.819c-0.421,0.16-0.874,0.24-1.357,0.24
	c-0.797,0-1.411-0.195-1.839-0.584c-0.428-0.391-0.643-0.889-0.643-1.494c0-0.355,0.081-0.681,0.242-0.975
	c0.162-0.294,0.374-0.529,0.637-0.708c0.262-0.178,0.557-0.312,0.885-0.403c0.242-0.063,0.606-0.125,1.094-0.185
	c0.994-0.119,1.726-0.26,2.194-0.424c0.004-0.168,0.007-0.276,0.007-0.321c0-0.501-0.116-0.854-0.349-1.06
	c-0.314-0.278-0.782-0.417-1.401-0.417c-0.579,0-1.006,0.102-1.282,0.304c-0.275,0.202-0.479,0.562-0.611,1.077L26.041,4.85
	c0.108-0.515,0.29-0.931,0.54-1.248s0.612-0.561,1.087-0.731c0.474-0.17,1.022-0.256,1.646-0.256c0.62,0,1.124,0.073,1.512,0.219
	s0.672,0.329,0.854,0.55c0.182,0.221,0.311,0.5,0.383,0.837c0.041,0.209,0.063,0.588,0.063,1.135v1.642
	c0,1.144,0.025,1.867,0.079,2.17c0.052,0.303,0.154,0.594,0.311,0.871h-1.285C31.102,9.783,31.02,9.484,30.982,9.143z M30.881,6.395
	c-0.447,0.183-1.117,0.337-2.01,0.465c-0.506,0.073-0.864,0.155-1.073,0.246c-0.209,0.093-0.372,0.226-0.485,0.399
	c-0.112,0.176-0.171,0.371-0.171,0.584c0,0.328,0.124,0.603,0.373,0.82c0.249,0.219,0.612,0.328,1.09,0.328
	c0.475,0,0.896-0.104,1.266-0.311s0.64-0.491,0.813-0.852c0.132-0.277,0.198-0.688,0.198-1.23V6.395z"/>
<path fill="#FFFFFF" d="M38.77,7.378l1.21,0.158c-0.132,0.834-0.471,1.486-1.016,1.959c-0.544,0.471-1.213,0.707-2.006,0.707
	c-0.993,0-1.792-0.324-2.396-0.975c-0.604-0.648-0.904-1.58-0.904-2.792c0-0.784,0.13-1.47,0.39-2.058s0.655-1.029,1.186-1.323
	c0.531-0.294,1.109-0.441,1.733-0.441c0.788,0,1.434,0.199,1.935,0.598s0.822,0.965,0.965,1.699l-1.196,0.185
	c-0.114-0.488-0.315-0.854-0.605-1.101c-0.289-0.246-0.639-0.369-1.049-0.369c-0.62,0-1.123,0.222-1.511,0.667
	s-0.581,1.147-0.581,2.109c0,0.975,0.187,1.684,0.561,2.125s0.861,0.663,1.464,0.663c0.482,0,0.887-0.147,1.21-0.444
	C38.478,8.451,38.683,7.994,38.77,7.378z"/>
<path fill="#FFFFFF" d="M41.039,10.039V0.017h1.229v5.715l2.912-2.953h1.593l-2.774,2.693l3.056,4.566h-1.518l-2.399-3.711
	L42.27,7.16v2.879H41.039z"/>
<polygon fill="#FFFFFF" points="0,5 6.996,10.001 6.996,0 "/>
</svg>
